Coordinates
version=1
nRows=19
nColumns=36
inDegrees=yes

Units are S.I. units (second, meters, Newtons, ...)
If the header above contains a line with 'inDegrees', this indicates whether rotational values are in degrees (yes) or radians (no).

endheader
time	pelvis_tilt	pelvis_list	pelvis_rotation	pelvis_tx	pelvis_ty	pelvis_tz	hip_flexion_r	hip_adduction_r	hip_rotation_r	knee_angle_r	knee_angle_r_beta	ankle_angle_r	subtalar_angle_r	mtp_angle_r	hip_flexion_l	hip_adduction_l	hip_rotation_l	knee_angle_l	knee_angle_l_beta	ankle_angle_l	subtalar_angle_l	mtp_angle_l	lumbar_extension	lumbar_bending	lumbar_rotation	arm_flex_r	arm_add_r	arm_rot_r	elbow_flex_r	pro_sup_r	arm_flex_l	arm_add_l	arm_rot_l	elbow_flex_l	pro_sup_l
      0.32000000	      2.23791058	     -1.56109718	     -3.15539869	      0.27433428	      0.96557063	     -0.21689949	     -2.46315158	      6.61229048	      3.92390557	      6.66667580	      0.11635544	      7.43708005	     -8.67792206	     -6.36996360	     25.53982859	     -1.79855321	      2.41693966	     48.40569625	      0.84483878	     -2.72575710	    -15.58708925	     -6.36996360	     -7.32952931	      2.16305397	      5.07201308	      0.21024709	     -9.30252298	    -12.30124447	     40.22438684	    112.92992857	     -4.23693763	     -5.29646878	     -1.14111846	     18.08554657	    107.97252526
      0.33000000	      2.24451294	     -1.55189964	     -3.62511055	      0.28604914	      0.96531422	     -0.21597847	     -3.49479805	      6.48967284	      3.78910657	      6.28567967	      0.10970581	      8.57666006	     -7.04417918	     -6.43333033	     25.85929024	     -1.90210427	      2.18341605	     44.88467993	      0.78338545	     -3.82988100	    -16.72153697	     -6.43333033	     -7.35631202	      2.19890833	      5.66477078	      0.90984368	     -9.62559135	    -12.24747095	     41.13068516	    112.80358988	     -5.14501744	     -5.44201051	     -1.59356289	     17.49103620	    107.67172445
      0.34000000	      2.22199753	     -1.63600454	     -4.09999613	      0.29768372	      0.96472120	     -0.21484031	     -4.58841012	      6.51761391	      4.25474062	      5.73932399	      0.10017010	      9.12487970	     -6.62053186	     -6.45457357	     26.12950375	     -2.22716746	      1.79533712	     41.27174488	      0.72032784	     -4.28313656	    -16.60045549	     -6.45457357	     -7.40336721	      2.29414356	      6.24439330	      1.65279990	     -9.90108410	    -12.07431375	     41.84487525	    112.80907380	     -6.04627409	     -5.64232160	     -1.94488712	     17.05640159	    107.52902170
      0.35000000	      2.08804037	     -1.76125396	     -4.55113666	      0.30936100	      0.96371200	     -0.21387934	     -5.52724605	      6.57621558	      4.67535822	      5.25857461	      0.09177944	      9.61046442	     -6.25494843	     -6.46875430	     26.42704612	     -2.58141648	      1.42017158	     37.55651291	      0.65548481	     -4.87675489	    -16.38264483	     -6.46875430	     -7.32500349	      2.46901814	      6.75797115	      2.36594876	    -10.14856259	    -11.88401917	     42.55879240	    112.82159540	     -6.99890627	     -5.76278145	     -2.33373522	     16.66206933	    107.39461667
      0.36000000	      2.00219156	     -1.88607224	     -5.00620841	      0.32113637	      0.96252351	     -0.21294518	     -6.53201038	      6.62017361	      5.17544480	      4.79569087	      0.08370060	     10.11177797	     -5.87084815	     -6.48134745	     26.53834681	     -2.91820625	      1.05412112	     33.71628048	      0.58846011	     -5.56500309	    -15.98914353	     -6.48134745	     -7.28012196	      2.64479252	      7.26103674	      3.13249967	    -10.48087662	    -11.65899749	     43.27677075	    112.83299684	     -7.93709821	     -5.91366731	     -2.81400447	     16.31376569	    107.24290924
      0.37000000	      2.09658491	     -2.05521026	     -5.45343543	      0.33314346	      0.96138176	     -0.21205070	     -7.79680986	      6.67238788	      5.54855247	      4.22928084	      0.07381488	     10.75085608	     -5.40995620	     -6.50142107	     26.32557670	     -3.30822413	      0.50146740	     29.80513732	      0.52019778	     -6.30894643	    -15.56272756	     -6.50142107	     -7.45062646	      2.83726071	      7.75586257	      3.87185656	    -10.80770597	    -11.24776165	     43.91956797	    112.81598905	     -8.89038285	     -5.98215465	     -3.66258877	     16.09876432	    107.00015684
      0.38000000	      1.84000594	     -2.32730967	     -5.88287150	      0.34501345	      0.95945291	     -0.21129943	     -8.55120045	      6.85974904	      6.01877636	      3.94275853	      0.06881412	     11.13552186	     -5.09732134	     -6.51038919	     26.50700048	     -3.76442176	      0.25036291	     26.08370877	      0.45524660	     -6.61079075	    -14.72687310	     -6.51038919	     -7.23368780	      3.20575416	      8.11721964	      4.63245581	    -11.02719235	    -11.02348280	     44.55272368	    112.82801439	     -9.91727899	     -6.02005379	     -4.12487742	     15.79149124	    106.85769287
      0.39000000	      2.14302504	     -2.49873759	     -6.34234574	      0.35734553	      0.95816022	     -0.21041492	    -10.11211587	      6.83946211	      6.31976375	      3.29327515	      0.05747849	     11.87031590	     -4.56503854	     -6.53525508	     25.90798042	     -4.15133879	     -0.55554741	     22.29485238	      0.38911858	     -6.75313349	    -13.43829595	     -6.53525508	     -7.62780740	      3.34289980	      8.50555227	      5.44113320	    -11.35843091	    -10.33174277	     45.08013355	    112.79444423	    -10.91138344	     -6.04476205	     -5.43375438	     15.74895995	    106.48718482
      0.40000000	      2.10210226	     -2.75979915	     -6.77267013	      0.36953943	      0.95609755	     -0.20973553	    -11.09681049	      6.93897311	      6.50686568	      3.06221565	      0.05344575	     12.70143589	     -3.67739338	     -6.63929198	     25.74507067	     -4.59099615	     -0.99318375	     18.87900753	      0.32950084	     -6.11922323	    -11.39163476	     -6.63929198	     -7.65385484	      3.58957799	      8.27369421	      6.73767533	    -11.61608057	     -8.81054114	     45.05700099	    112.53158420	    -12.60747271	     -5.63533085	     -9.59002910	     17.06187500	    105.67406280
      0.41000000	      2.16676094	     -3.00434645	     -7.22947463	      0.38180091	      0.95412824	     -0.20907676	    -12.27052303	      6.98453990	      6.96881560	      2.68533177	      0.04686788	     13.13841163	     -3.42300703	     -6.66014029	     25.35138675	     -4.95654732	     -1.28687115	     15.48700791	      0.27029928	     -5.92950883	    -10.26984261	     -6.66014029	     -7.79757860	      3.85346810	      8.67714981	      7.42123648	    -11.80610197	     -8.52180639	     45.70659129	    112.45763804	    -13.49215974	     -5.66571821	    -10.08803024	     16.79963701	    105.59551118
      0.42000000	      2.18232245	     -3.28040392	     -7.67945185	      0.39411683	      0.95193210	     -0.20848208	    -13.31578179	      7.04859319	      7.23657243	      2.47333519	      0.04316784	     13.80319361	     -2.81678681	     -6.73812795	     25.03437316	     -5.38060020	     -1.58626282	     12.45813696	      0.21743551	     -5.05091392	     -8.47898328	     -6.73812795	     -7.88987862	      4.13624434	      8.83317451	      8.28922881	    -12.00107063	     -7.73809645	     46.06740034	    112.47694305	    -14.61700759	     -5.48573996	    -11.95908151	     17.13864657	    105.51207035
      0.43000000	      2.05361877	     -3.56275875	     -8.13802516	      0.40634299	      0.94949947	     -0.20800287	    -14.14166309	      7.12323340	      7.69511971	      2.37653391	      0.04147834	     14.21828388	     -2.60845378	     -6.74740258	     24.82198577	     -5.77075890	     -1.40510721	      9.61800332	      0.16786583	     -4.62705849	     -7.76315607	     -6.74740258	     -7.82291890	      4.47183007	      9.20833632	      8.90229063	    -12.12606806	     -7.56219914	     46.65292693	    112.41091253	    -15.42680609	     -5.49297692	    -12.20481072	     16.87758465	    105.40806497
      0.44000000	      2.28381179	     -3.74604886	     -8.54576963	      0.41877926	      0.94756863	     -0.20757055	    -15.40652791	      7.01590564	      7.93846444	      2.16724601	      0.03782558	     14.75059690	     -2.10972027	     -6.77169743	     24.17685704	     -6.02663013	     -1.54684744	      7.02686986	      0.12264202	     -4.04887542	     -6.99441769	     -6.77169743	     -8.18299489	      4.60853396	      9.51873048	      9.47827199	    -12.28315234	     -7.06275195	     47.30861043	    112.44154301	    -16.13531086	     -5.50245447	    -12.93474866	     16.80507382	    105.23650376
      0.45000000	      2.15262857	     -3.98864619	     -8.97067723	      0.43116689	      0.94513571	     -0.20725451	    -16.15600719	      7.01850563	      8.26883771	      2.20748149	      0.03852782	     15.27858981	     -1.87809391	     -6.78414712	     23.99591845	     -6.38064259	     -1.28557867	      4.96387083	      0.08663589	     -3.45833163	     -6.54433657	     -6.78414712	     -8.10648494	      4.89397397	      9.88368506	      9.96211264	    -12.39755759	     -6.85064199	     47.77135686	    112.41925416	    -16.84581694	     -5.46700403	    -13.33481101	     16.69625368	    105.10417031
      0.46000000	      2.05793165	     -4.16613367	     -9.38450562	      0.44360263	      0.94277887	     -0.20695060	    -16.88956274	      6.94273426	      8.57504562	      2.34712213	      0.04096501	     15.63707774	     -1.63806291	     -6.79319349	     23.86421544	     -6.66980371	     -1.28370441	      3.44215212	      0.06007689	     -2.88086149	     -6.38654633	     -6.79319349	     -8.09181299	      5.06426499	     10.17949980	     10.38974542	    -12.42859328	     -6.66323007	     48.29238758	    112.39829464	    -17.47055130	     -5.45857984	    -13.66002281	     16.56552157	    104.97301061
      0.47000000	      2.09653801	     -4.26428688	     -9.72459954	      0.45623596	      0.94068382	     -0.20674188	    -17.73941967	      6.75677927	      8.60518478	      2.48906982	      0.04344246	     16.12786847	     -1.14917506	     -6.81958507	     23.67648722	     -6.82233216	     -1.54136148	      2.48560127	      0.04338193	     -2.36148551	     -6.39360353	     -6.81958507	     -8.22437914	      5.10102172	     10.45950640	     10.67747028	    -12.48414969	     -6.38535302	     48.94170216	    112.47115860	    -18.00562497	     -5.42952692	    -14.54289331	     16.68091401	    104.73386137
      0.48000000	      1.96909952	     -4.33167022	    -10.03524216	      0.46893378	      0.93847597	     -0.20657539	    -18.31653139	      6.59274099	      8.73699244	      2.80908450	      0.04902777	     16.28119304	     -1.12849326	     -6.82419256	     23.76982266	     -6.94245891	     -1.79029370	      2.12021878	      0.03700480	     -1.93373285	     -6.64933886	     -6.82419256	     -8.11885257	      5.14483708	     10.65028496	     10.96136636	    -12.37921728	     -6.35513466	     49.28792133	    112.49986728	    -18.47858448	     -5.47975886	    -14.70603535	     16.52220767	    104.68531724
      0.49000000	      1.95267896	     -4.29252355	    -10.31647081	      0.48184161	      0.93652138	     -0.20645073	    -18.96927597	      6.29624760	      8.81811525	      3.19216704	      0.05571383	     16.46850834	     -1.13809018	     -6.82947251	     23.77369984	     -6.90292136	     -2.15307587	      2.22069327	      0.03875841	     -1.55428635	     -7.08648098	     -6.82947251	     -8.12297282	      5.01443266	     10.83969860	     11.10279820	    -12.25842727	     -6.30860993	     49.72742538	    112.53422000	    -18.83674508	     -5.56404454	    -14.90632410	     16.37432225	    104.62016771
      0.50000000	      1.96668271	     -4.16896317	    -10.53274342	      0.49497749	      0.93475738	     -0.20640592	    -19.59845828	      5.92437210	      8.77157667	      3.64731043	      0.06365758	     16.59903260	     -1.17314700	     -6.83591447	     23.78610502	     -6.72779441	     -2.58998269	      2.75466748	      0.04807802	     -1.33891536	     -7.67914993	     -6.83591447	     -8.12666304	      4.77026479	     11.00020438	     11.09080458	    -12.11625993	     -6.32091997	     50.21744022	    112.56354533	    -19.08735986	     -5.68675383	    -15.14246993	     16.24098071	    104.53879089
